# xmcd
#
# Track frame offsets: 
#        150
#        10580
#        24912
#        36162
#        48055
#        61642
#        75692
#        86315
#        96382
#        108497
#        118920
#        133370
#        155295
#        165055
#        177100
#        185284
#        196207
#        208357
#        223630
#        244005
#        266815
#
# Disc length: 3810 seconds
#
# Revision: 1
# Processed by: cddbd v1.5.2PL0 Copyright (c) Steve Scherf et al.
# Submitted via: ExactAudioCopy v0.99pb4
#
DISCID=100ee015
DTITLE=Various Artist - Kompilace-Zlato ceske country 2-CD2
DYEAR=1900
DGENRE=Country
TTITLE0=Edvardova houpaci zidle
TTITLE1=Zlate strevicky
TTITLE2=Zradny banjo
TTITLE3=Bilej snih
TTITLE4=Reknete ji
TTITLE5=Tulacke blues
TTITLE6=U tri louzi
TTITLE7=Zkratky
TTITLE8=Prekvapko
TTITLE9=Panenka
TTITLE10=Rano
TTITLE11=Odjezd
TTITLE12=Hlidej lasku skalo ma
TTITLE13=Krasna Isabel
TTITLE14=Prvni pujdu dal
TTITLE15=Hej Joe
TTITLE16=Krajina posedla tmou
TTITLE17=Cekej mala Greto
TTITLE18=Pastor z Little Fort
TTITLE19=Skocna
TTITLE20=Cajova ruze
EXTD=
EXTT0=
EXTT1=
EXTT2=
EXTT3=
EXTT4=
EXTT5=
EXTT6=
EXTT7=
EXTT8=
EXTT9=
EXTT10=
EXTT11=
EXTT12=
EXTT13=
EXTT14=
EXTT15=
EXTT16=
EXTT17=
EXTT18=
EXTT19=
EXTT20=
PLAYORDER=
